# xmcd
#
# Track frame offsets:
#	150
#	51941
#	69832
#	106578
#	151831
#	194194
#	211381
#	242673
#
# Disc length: 3795 seconds
#
# Revision: 1
# Processed by: cddbd v1.5.2PL0 Copyright (c) Steve Scherf et al.
# Submitted via: audiograbber 1.83.01
#
DISCID=680ed108
DTITLE=Grateful Dead - 78-01-13 Arlington Theatre, Santa Barbara CA
DYEAR=1900
DGENRE=
TTITLE0=Mississippi Half-Step
TTITLE1=Mexicali Blues
TTITLE2=Big River
TTITLE3=Candyman
TTITLE4=It's All Over Now
TTITLE5=Brown Eyed Women
TTITLE6=Beat It On Down The Line
TTITLE7=Friend Of The Devil
EXTD=
EXTT0=
EXTT1=
EXTT2=
EXTT3=
EXTT4=
EXTT5=
EXTT6=
EXTT7=
PLAYORDER=
